<svg id="Layer_5" enable-background="new 0 0 64 64" height="512" viewBox="0 0 64 64" width="512" xmlns="http://www.w3.org/2000/svg"><path d="m53 28h-3v-2h3c.552 0 1-.448 1-1v-10c0-.552-.448-1-1-1h-4v-2h4c1.654 0 3 1.346 3 3v10c0 1.654-1.346 3-3 3z"/><path d="m14 28h-3c-1.654 0-3-1.346-3-3v-10c0-1.654 1.346-3 3-3h4v2h-4c-.552 0-1 .448-1 1v10c0 .552.448 1 1 1h3z"/><path d="m38 59h-12c-1.654 0-3-1.346-3-3v-10c0-1.654 1.346-3 3-3h12c1.654 0 3 1.346 3 3v10c0 1.654-1.346 3-3 3zm-12-14c-.552 0-1 .448-1 1v10c0 .552.448 1 1 1h12c.552 0 1-.448 1-1v-10c0-.552-.448-1-1-1z"/><path d="m61.383 38.72c-1.678-3.04-4.439-5.245-7.775-6.209-.114-.033-.228-.056-.342-.083-.878-1.448-2.453-2.428-4.266-2.428h-.865v2h.865c1.654 0 3 1.346 3 3v7h2v-2.742c2.421 1.676 3.577 4.737 2.725 7.684-.124.43-.288.84-.487 1.232-.635-1.045-1.369-2.037-2.207-2.957l-1.479 1.348c2.868 3.146 4.448 7.207 4.448 11.435v3h-9v-3h-2v3h-28v-3h-2v3h-9v-3c0-4.228 1.58-8.289 4.448-11.435l-1.478-1.347c-.838.919-1.572 1.912-2.207 2.957-.199-.392-.363-.802-.487-1.232-.853-2.948.303-6.009 2.724-7.685v2.742h2v-7c0-1.654 1.346-3 3-3h.865v-2h-.865c-1.813 0-3.388.98-4.265 2.428-.114.026-.228.05-.342.083-3.336.964-6.098 3.169-7.775 6.209s-2.07 6.552-1.106 9.888c.678 2.349 1.99 4.424 3.794 6.047-.199 1.097-.306 2.215-.306 3.345v5h54v-5c0-1.13-.107-2.248-.305-3.345 1.804-1.623 3.115-3.698 3.794-6.047.964-3.337.571-6.848-1.106-9.888zm-51.358-3.965c-.004.083-.025.161-.025.245v1.968c-.631.315-1.227.676-1.753 1.111l-1.443-1.389c.947-.821 2.033-1.473 3.221-1.935zm-6.892 8.588 1.945.481c-.114.881-.102 1.787.055 2.695l-1.932.558c-.241-1.244-.257-2.502-.068-3.734zm2.73 9.059c-.905-.993-1.616-2.143-2.105-3.402l1.931-.558c.263.637.601 1.234 1.002 1.794-.32.705-.598 1.427-.828 2.166zm-.313-10.521-1.937-.479c.204-.586.45-1.162.755-1.716.306-.554.662-1.068 1.048-1.554l1.44 1.385c-.551.719-.993 1.515-1.306 2.364zm50.203-3.803c-.53-.438-1.115-.821-1.753-1.136v-1.942c0-.086-.021-.167-.025-.252 1.192.46 2.274 1.12 3.222 1.942zm2.829.054c.387.485.743.999 1.048 1.554.306.554.551 1.13.755 1.716l-1.937.479c-.312-.849-.754-1.644-1.307-2.364zm-.445 14.27c-.23-.739-.508-1.461-.827-2.167.401-.559.739-1.157 1.002-1.794l1.93.559c-.489 1.259-1.2 2.409-2.105 3.402zm2.661-5.324-1.932-.558c.158-.909.17-1.815.055-2.695l1.945-.481c.19 1.231.174 2.489-.068 3.734z"/><path d="m37 49h-2v-2h2zm-4 0h-2v-2h2zm-4 0h-2v-2h2z"/><path d="m22.012 21h-2l-.002-.157c-.002-.136-.003-.271.003-.406.025-.543.088-1.088.187-1.619l1.967.365c-.082.441-.135.895-.155 1.346-.004.094-.002.188-.001.284z"/><path d="m22.689 17.368-1.859-.736c1.748-4.415 5.911-7.406 10.608-7.619.188-.009.374-.013.561-.013v2c-.157 0-.312.004-.471.011-3.911.177-7.38 2.673-8.839 6.357z"/><path d="m32 1c-11.028 0-20 8.972-20 20 0 6.128 2.752 11.796 7.556 15.622.364-.381.875-.622 1.444-.622h22c.569 0 1.08.241 1.444.622 4.804-3.826 7.556-9.494 7.556-15.622 0-11.028-8.972-20-20-20zm11.46 29.655c-.739.874-1.853 1.345-2.998 1.345h-16.922c-1.215 0-2.356-.56-3.128-1.498-2.265-2.752-3.574-6.319-3.396-10.203.35-7.645 6.641-13.936 14.286-14.283 8.602-.39 15.698 6.468 15.698 14.984 0 3.683-1.335 7.047-3.54 9.655z" fill="#f0bc5e"/><path d="m45.396 39.787c.374-.501.604-1.115.604-1.787 0-1.654-1.346-3-3-3h-22c-1.654 0-3 1.346-3 3 0 .672.23 1.287.605 1.787-1.892.561-3.697 1.412-5.354 2.551l1.133 1.648c2.843-1.954 6.168-2.986 9.616-2.986h16c3.449 0 6.774 1.033 9.616 2.987l1.133-1.648c-1.656-1.139-3.461-1.991-5.353-2.552zm-21.396-.787h-3c-.552 0-1-.448-1-1s.448-1 1-1h22c.552 0 1 .448 1 1s-.448 1-1 1h-3z"/><path d="m40.462 33h-16.922c-1.504 0-2.926-.679-3.9-1.862-2.518-3.06-3.804-6.925-3.623-10.885.375-8.173 7.069-14.866 15.24-15.236 4.423-.213 8.607 1.368 11.796 4.415 3.19 3.048 4.947 7.157 4.947 11.568 0 3.762-1.341 7.42-3.776 10.301-.913 1.08-2.285 1.699-3.762 1.699zm-9.115-25.985c-7.147.324-13.004 6.18-13.332 13.33-.158 3.464.967 6.846 3.17 9.521.592.721 1.451 1.134 2.355 1.134h16.922c.888 0 1.702-.361 2.234-.99 2.131-2.521 3.304-5.72 3.304-9.01 0-3.859-1.537-7.454-4.329-10.122-2.79-2.667-6.452-4.043-10.324-3.863z"/><g fill="#f0bc5e"><path d="m45.999 59c-.461 0-.923-.109-1.337-.314-.718-.359-1.253-.976-1.507-1.736s-.197-1.574.161-2.291l6-12c.514-1.024 1.542-1.659 2.685-1.659.46 0 .922.108 1.336.314.72.359 1.254.976 1.508 1.736.254.762.197 1.575-.161 2.291l-6 12c-.513 1.024-1.541 1.659-2.685 1.659z"/><path d="m18.001 59c-1.144 0-2.172-.635-2.685-1.658l-6-12c-.358-.716-.415-1.529-.161-2.291.254-.761.788-1.377 1.505-1.735.417-.208.879-.316 1.339-.316 1.143 0 2.171.635 2.684 1.656l6.001 12.002c.358.717.415 1.53.161 2.291s-.789 1.377-1.506 1.735c-.415.207-.877.316-1.338.316z"/></g></svg>